HIERARCHY
ROOT Hips
{
  OFFSET 5.84602e-005 68.8428 3.50346
  CHANNELS 6 Xposition Yposition Zposition Zrotation Xrotation Yrotation
  JOINT Spine
  {
    OFFSET 0 8.597 -4.6522
    CHANNELS 3 Zrotation Xrotation Yrotation
    JOINT Spine1
    {
      OFFSET 0 7.8454 0.4098
      CHANNELS 3 Zrotation Xrotation Yrotation
      JOINT Spine2
      {
        OFFSET 0 9.7078 -2.1609
        CHANNELS 3 Zrotation Xrotation Yrotation
        JOINT Neck
        {
          OFFSET 0 21.8761 -0.4549
          CHANNELS 3 Zrotation Xrotation Yrotation
          JOINT Head
          {
            OFFSET 0 12.3537 3.3602
            CHANNELS 3 Zrotation Xrotation Yrotation
            End Site
            {
              OFFSET 0.0001 18.9506 0.5657
            }
          }
        }
        JOINT LeftShoulder
        {
          OFFSET 2.2086 21.1115 7.2329
          CHANNELS 3 Zrotation Xrotation Yrotation
          JOINT LeftArm
          {
            OFFSET 13.1193 3.0282 -4.8998
            CHANNELS 3 Zrotation Xrotation Yrotation
            JOINT LeftForeArm
            {
              OFFSET 27.4081 -0.0973053 -0.2375
              CHANNELS 3 Zrotation Xrotation Yrotation
              JOINT LeftHand
              {
                OFFSET 22.8641 0.0662994 -0.1369
                CHANNELS 3 Zrotation Xrotation Yrotation
                JOINT LeftHandIndex1
                {
                  OFFSET 8.8614 0.775009 2.4612
                  CHANNELS 3 Zrotation Xrotation Yrotation
                  JOINT LeftHandIndex2
                  {
                    OFFSET 3.3146 -0.808304 0.5841
                    CHANNELS 3 Zrotation Xrotation Yrotation
                    JOINT LeftHandIndex3
                    {
                      OFFSET 2.2628 -0.552002 0.3989
                      CHANNELS 3 Zrotation Xrotation Yrotation
                      End Site
                      {
                        OFFSET 1.6102 -0.4807 0.2612
                      }
                    }
                  }
                }
                JOINT LeftHandMiddle1
                {
                  OFFSET 8.9937 0.895004 0.2143
                  CHANNELS 3 Zrotation Xrotation Yrotation
                  JOINT LeftHandMiddle2
                  {
                    OFFSET 4.0984 0.0113983 -0.0242
                    CHANNELS 3 Zrotation Xrotation Yrotation
                    JOINT LeftHandMiddle3
                    {
                      OFFSET 2.2716 0.00689697 -0.0138001
                      CHANNELS 3 Zrotation Xrotation Yrotation
                      End Site
                      {
                        OFFSET 2.0404 -0.1441 0.0027
                      }
                    }
                  }
                }
                JOINT LeftHandRing1
                {
                  OFFSET 8.5234 0.597198 -2.0164
                  CHANNELS 3 Zrotation Xrotation Yrotation
                  JOINT LeftHandRing2
                  {
                    OFFSET 3.7188 -0.188293 -0.2328
                    CHANNELS 3 Zrotation Xrotation Yrotation
                    JOINT LeftHandRing3
                    {
                      OFFSET 2.1191 -0.106598 -0.1332
                      CHANNELS 3 Zrotation Xrotation Yrotation
                      End Site
                      {
                        OFFSET 1.8737 -0.2304 -0.0886
                      }
                    }
                  }
                }
                JOINT LeftHandPinky1
                {
                  OFFSET 7.9094 -0.601089 -3.4825
                  CHANNELS 3 Zrotation Xrotation Yrotation
                  JOINT LeftHandPinky2
                  {
                    OFFSET 2.2874 -0.477005 -0.6314
                    CHANNELS 3 Zrotation Xrotation Yrotation
                    JOINT LeftHandPinky3
                    {
                      OFFSET 1.6774 -0.349396 -0.4633
                      CHANNELS 3 Zrotation Xrotation Yrotation
                      End Site
                      {
                        OFFSET 1.4888 -0.4091 -0.3416
                      }
                    }
                  }
                }
                JOINT LeftHandThumb1
                {
                  OFFSET 1.833 -1.3875 1.3896
                  CHANNELS 3 Zrotation Xrotation Yrotation
                  JOINT LeftHandThumb2
                  {
                    OFFSET 3.4129 -1.121 2.5732
                    CHANNELS 3 Zrotation Xrotation Yrotation
                    JOINT LeftHandThumb3
                    {
                      OFFSET 2.2474 -0.804199 1.6192
                      CHANNELS 3 Zrotation Xrotation Yrotation
                      End Site
                      {
                        OFFSET 1.6527 -0.5689 1.1317
                      }
                    }
                  }
                }
              }
            }
          }
        }
        JOINT RightShoulder
        {
          OFFSET -2.2086 21.1115 7.2329
          CHANNELS 3 Zrotation Xrotation Yrotation
          JOINT RightArm
          {
            OFFSET -13.1216 3.0287 -4.9007
            CHANNELS 3 Zrotation Xrotation Yrotation
            JOINT RightForeArm
            {
              OFFSET -27.4081 -0.0973053 -0.2375
              CHANNELS 3 Zrotation Xrotation Yrotation
              JOINT RightHand
              {
                OFFSET -22.8641 0.0664063 -0.1369
                CHANNELS 3 Zrotation Xrotation Yrotation
                JOINT RightHandIndex1
                {
                  OFFSET -8.8614 0.774994 2.4612
                  CHANNELS 3 Zrotation Xrotation Yrotation
                  JOINT RightHandIndex2
                  {
                    OFFSET -3.3146 -0.808304 0.5841
                    CHANNELS 3 Zrotation Xrotation Yrotation
                    JOINT RightHandIndex3
                    {
                      OFFSET -2.2628 -0.552002 0.3989
                      CHANNELS 3 Zrotation Xrotation Yrotation
                      End Site
                      {
                        OFFSET -1.6102 -0.4807 0.2612
                      }
                    }
                  }
                }
                JOINT RightHandMiddle1
                {
                  OFFSET -8.9937 0.894989 0.2143
                  CHANNELS 3 Zrotation Xrotation Yrotation
                  JOINT RightHandMiddle2
                  {
                    OFFSET -4.0984 0.0113983 -0.0242
                    CHANNELS 3 Zrotation Xrotation Yrotation
                    JOINT RightHandMiddle3
                    {
                      OFFSET -2.2716 0.00691223 -0.0138001
                      CHANNELS 3 Zrotation Xrotation Yrotation
                      End Site
                      {
                        OFFSET -2.0404 -0.1441 0.0027
                      }
                    }
                  }
                }
                JOINT RightHandRing1
                {
                  OFFSET -8.5234 0.597198 -2.0164
                  CHANNELS 3 Zrotation Xrotation Yrotation
                  JOINT RightHandRing2
                  {
                    OFFSET -3.7188 -0.188309 -0.2328
                    CHANNELS 3 Zrotation Xrotation Yrotation
                    JOINT RightHandRing3
                    {
                      OFFSET -2.1191 -0.106598 -0.1332
                      CHANNELS 3 Zrotation Xrotation Yrotation
                      End Site
                      {
                        OFFSET -1.8737 -0.2304 -0.0886
                      }
                    }
                  }
                }
                JOINT RightHandPinky1
                {
                  OFFSET -7.9094 -0.601105 -3.4825
                  CHANNELS 3 Zrotation Xrotation Yrotation
                  JOINT RightHandPinky2
                  {
                    OFFSET -2.2874 -0.477005 -0.6314
                    CHANNELS 3 Zrotation Xrotation Yrotation
                    JOINT RightHandPinky3
                    {
                      OFFSET -1.6774 -0.349396 -0.4633
                      CHANNELS 3 Zrotation Xrotation Yrotation
                      End Site
                      {
                        OFFSET -1.4888 -0.4091 -0.3416
                      }
                    }
                  }
                }
                JOINT RightHandThumb1
                {
                  OFFSET -1.833 -1.38751 1.3896
                  CHANNELS 3 Zrotation Xrotation Yrotation
                  JOINT RightHandThumb2
                  {
                    OFFSET -3.41299 -1.12099 2.5732
                    CHANNELS 3 Zrotation Xrotation Yrotation
                    JOINT RightHandThumb3
                    {
                      OFFSET -2.24741 -0.804108 1.6192
                      CHANNELS 3 Zrotation Xrotation Yrotation
                      End Site
                      {
                        OFFSET -1.6527 -0.5689 1.1317
                      }
                    }
                  }
                }
              }
            }
          }
        }
      }
    }
  }
  JOINT RightUpLeg
  {
    OFFSET -9.1966 3.8861 -0.7581
    CHANNELS 3 Zrotation Xrotation Yrotation
    JOINT RightLeg
    {
      OFFSET -0.7359 -41.0265 0
      CHANNELS 3 Zrotation Xrotation Yrotation
      JOINT RightFoot
      {
        OFFSET 0 -40.2855 0
        CHANNELS 3 Zrotation Xrotation Yrotation
        JOINT RightToeBase
        {
          OFFSET 0 -5.6122 11.7359
          CHANNELS 3 Zrotation Xrotation Yrotation
          End Site
          {
            OFFSET 0 0 7.8731
          }
        }
      }
    }
  }
  JOINT LeftUpLeg
  {
    OFFSET 9.1965 3.8864 -0.7581
    CHANNELS 3 Zrotation Xrotation Yrotation
    JOINT LeftLeg
    {
      OFFSET 0.7359 -41.0268 0
      CHANNELS 3 Zrotation Xrotation Yrotation
      JOINT LeftFoot
      {
        OFFSET 0 -40.2855 0
        CHANNELS 3 Zrotation Xrotation Yrotation
        JOINT LeftToeBase
        {
          OFFSET 0 -5.6122 11.7359
          CHANNELS 3 Zrotation Xrotation Yrotation
          End Site
          {
            OFFSET 0 0 7.8731
          }
        }
      }
    }
  }
}
MOTION
Frames:	5
Frame Time:	0.0333333
39.9677 8.61939 25.3921 179.997 58.9977 -1.13208e-010 0.545153 7.9867 -0.572834 1.18944 15.967 -1.24164 1.18944 15.9671 -1.24164 8.59892e-005 13.9931 -4.20621e-005 -1.59193e-007 0.691536 -5.72678e-007 -48.3443 -3.40029 -5.05975 -0.890853 55.0833 12.7917 4.47138 35.98 -9.35662 4.23283 7.08367 -4.98963 -7.95139e-016 -7.95139e-016 3.18055e-015 -2.59897e-007 4.10151e-007 -2.42254e-006 -1.2109e-007 6.43875e-008 -7.60424e-007 -7.95139e-016 -7.95139e-016 3.18055e-015 -0.0146047 -8.8894e-005 -5.40642e-006 -1.19134e-007 6.44964e-008 -7.60416e-007 -7.95139e-016 -7.95139e-016 3.18055e-015 -0.0187532 -0.00117657 5.97683e-005 -1.59028e-015 -7.95139e-016 -6.36111e-015 -7.95139e-016 -7.95139e-016 3.18055e-015 -0.0122775 -0.00324996 0.000673743 -1.66979e-014 -1.90833e-014 -9.54166e-015 -7.95139e-016 -7.95139e-016 3.18055e-015 -2.59897e-007 4.10151e-007 -2.42254e-006 -1.2109e-007 6.43875e-008 -7.60424e-007 46.3195 -6.88401 -13.6095 41.9242 -11.3763 71.0341 -130.185 86.1957 -173.01 -14.8746 -27.1619 9.4027 -7.20594e-016 0 1.81391e-015 -3.8266e-015 0 -4.62174e-015 -1.88845e-015 3.18055e-015 -0 -7.20594e-016 0 1.81391e-015 0.0149948 -9.15247e-005 2.14917e-006 1.81391e-015 6.36111e-015 -3.67752e-015 -7.20594e-016 0 1.81391e-015 0.0189626 -0.00118305 -6.37942e-005 -3.13086e-015 -3.18055e-015 -2.13694e-015 -7.20594e-016 0 1.81391e-015 0.0123516 -0.00327145 -0.000682986 -6.03808e-015 6.36111e-015 7.95139e-016 -7.20594e-016 0 1.81391e-015 -3.8266e-015 0 -4.62174e-015 -1.88845e-015 3.18055e-015 -0 -41.9979 -49.211 -73.32 -120.703 41.6537 137.469 -17.5954 -3.34511 -33.2125 4.96877e-007 1.61906e-006 1.61127e-007 59.3542 -51.6372 87.8772 131.236 40.45 -125.756 23.8794 -10.7225 11.1067 5.7502e-006 5.5713e-006 1.48199e-006 
39.967 8.61937 25.4613 179.997 58.9977 1.63597e-010 0.545716 7.9367 -0.571466 1.18962 15.8671 -1.23819 1.18962 15.8671 -1.23819 1.62456e-005 13.9934 -6.9734e-006 5.76527e-007 0.66221 -2.51805e-007 -48.1293 -3.43177 -4.73975 -0.821271 55.0946 12.2017 4.32137 36.0017 -9.07157 4.11513 7.2979 -4.99646 1.24041e-007 5.86165e-007 -2.37807e-006 2.73078e-007 2.31215e-007 -7.17157e-007 1.24041e-007 5.86165e-007 -2.37807e-006 1.24041e-007 5.86165e-007 -2.37807e-006 -0.0146118 -8.70151e-005 -5.32205e-006 -0 -3.18055e-015 -0 1.24041e-007 5.86165e-007 -2.37807e-006 -0.0187535 -0.0011774 6.48912e-005 1.21743e-007 5.86411e-007 -2.37797e-006 1.24041e-007 5.86165e-007 -2.37807e-006 -0.0122682 -0.00324943 0.000675178 2.38542e-015 -7.95139e-016 -0 1.24041e-007 5.86165e-007 -2.37807e-006 2.73078e-007 2.31215e-007 -7.17157e-007 1.24041e-007 5.86165e-007 -2.37807e-006 46.3954 -6.70777 -13.6179 41.8659 -11.3924 70.763 -131.49 86.662 -172.036 -14.6632 -27.1784 9.36523 -1.08189e-006 2.0854e-006 2.91566e-006 -5.15216e-007 -7.49185e-007 1.41729e-006 -5.1684e-015 0 -6.16232e-015 -1.08189e-006 2.0854e-006 2.91566e-006 0.0149557 -9.55442e-005 -1.50724e-006 -8.79622e-015 0 1.05356e-014 -1.08189e-006 2.0854e-006 2.91566e-006 0.0190241 -0.00119903 -5.61498e-005 -2.53828e-006 -1.73058e-006 -2.81539e-006 -1.08189e-006 2.0854e-006 2.91566e-006 0.0122555 -0.00324587 -0.000670095 1.34677e-014 0 -9.93923e-016 -1.08189e-006 2.0854e-006 2.91566e-006 -5.15216e-007 -7.49185e-007 1.41729e-006 -5.1684e-015 0 -6.16232e-015 -41.9986 -49.2109 -73.3199 -120.702 41.6539 137.469 -17.5948 -3.34498 -33.2121 -3.18055e-015 -6.36111e-015 8.74653e-015 59.1247 -51.5778 87.6875 131.12 40.6378 -125.58 23.8759 -10.7267 11.1052 -3.58288e-007 -4.5012e-007 -3.80326e-006 
39.9663 8.61934 25.5305 179.997 58.9977 1.63597e-010 0.546276 7.88669 -0.570095 1.1898 15.7671 -1.23474 1.1898 15.7671 -1.23474 1.90134e-005 13.9934 -1.04174e-005 2.90173e-007 0.632891 2.46907e-007 -47.9141 -3.46203 -4.41959 -0.751462 55.1054 11.6116 4.17117 36.0226 -8.78638 3.9974 7.51214 -5.00285 -7.76629e-007 -3.42013e-007 -8.80673e-008 -3.52269e-007 1.29559e-007 3.10651e-006 -3.88314e-007 -1.71006e-007 -4.40336e-008 -7.76629e-007 -3.42013e-007 -8.80673e-008 -0.0146059 -8.96551e-005 1.03444e-005 -3.88316e-007 -1.71001e-007 -4.40551e-008 -7.76629e-007 -3.42013e-007 -8.80673e-008 -0.0187527 -0.00117534 6.34735e-005 -3.88317e-007 -1.70999e-007 -4.40576e-008 -7.76629e-007 -3.42013e-007 -8.80673e-008 -0.0122694 -0.00324732 0.000677439 -3.88318e-007 -1.71e-007 -4.40408e-008 -7.76629e-007 -3.42013e-007 -8.80673e-008 -3.52269e-007 1.29559e-007 3.10651e-006 -3.88314e-007 -1.71006e-007 -4.40336e-008 46.4714 -6.5315 -13.6265 41.8075 -11.4083 70.4918 -133.083 87.1171 -170.776 -14.4518 -27.195 9.3278 -7.25564e-015 0 6.65929e-015 -6.65929e-015 -3.18055e-015 1.35174e-014 -1.16289e-014 0 6.95746e-016 -7.25564e-015 0 6.65929e-015 0.014991 -9.32112e-005 -1.10291e-006 7.95139e-016 1.59028e-014 -1.09332e-015 -7.25564e-015 0 6.65929e-015 0.0189944 -0.00119249 -5.62038e-005 -2.5842e-015 0 1.98785e-016 -7.25564e-015 0 6.65929e-015 0.0122142 -0.0032371 -0.000670054 -1.68967e-015 -9.54166e-015 -1.98785e-015 -7.25564e-015 0 6.65929e-015 -6.65929e-015 -3.18055e-015 1.35174e-014 -1.16289e-014 0 6.95746e-016 -41.9992 -49.2108 -73.3197 -120.702 41.654 137.469 -17.5941 -3.34485 -33.2117 6.2913e-007 -2.33662e-007 3.59309e-006 58.8958 -51.5178 87.4983 131.002 40.8254 -125.402 23.8724 -10.7309 11.1036 -3.18055e-015 -1.11319e-014 -7.55382e-015 
39.9656 8.61932 25.5997 179.997 58.9977 1.63597e-010 0.546836 7.83668 -0.568722 1.18998 15.6671 -1.23129 1.18998 15.6671 -1.23129 2.28359e-005 13.9932 -1.19147e-005 -3.31805e-010 0.603592 -2.61178e-008 -47.6987 -3.4911 -4.09936 -0.681461 55.1159 11.0214 4.02079 36.043 -8.50103 3.8797 7.72638 -5.0092 3.88313e-007 1.70974e-007 4.42041e-008 5.03595e-007 7.66726e-007 -2.33246e-006 2.84716e-007 2.23027e-007 -7.17837e-007 3.88313e-007 1.70974e-007 4.42041e-008 -0.0146101 -8.74267e-005 -2.53312e-006 2.86675e-007 2.23131e-007 -7.17809e-007 3.88313e-007 1.70974e-007 4.42041e-008 -0.0187585 -0.00117534 6.14293e-005 2.87225e-007 2.23303e-007 -7.17812e-007 3.88313e-007 1.70974e-007 4.42041e-008 -0.0122849 -0.00325368 0.000674607 3.88317e-007 1.70968e-007 4.42114e-008 3.88313e-007 1.70974e-007 4.42041e-008 5.03595e-007 7.66726e-007 -2.33246e-006 2.84716e-007 2.23027e-007 -7.17837e-007 46.5473 -6.35526 -13.6353 41.7491 -11.4239 70.2207 -135.107 87.5605 -169.086 -14.2404 -27.2118 9.29044 -6.4605e-015 -3.18055e-015 -2.38542e-015 -4.94566e-007 -7.5551e-007 1.42038e-006 -9.44227e-015 3.18055e-015 -1.09332e-014 -6.4605e-015 -3.18055e-015 -2.38542e-015 0.0150482 -9.03764e-005 4.65228e-006 -7.35503e-015 0 -1.98785e-015 -6.4605e-015 -3.18055e-015 -2.38542e-015 0.0189106 -0.00118794 -6.19039e-005 2.24773e-006 -1.22194e-006 2.15685e-006 -6.4605e-015 -3.18055e-015 -2.38542e-015 0.012278 -0.00325031 -0.000678967 -2.5842e-015 -9.54166e-015 1.98785e-016 -6.4605e-015 -3.18055e-015 -2.38542e-015 -4.94566e-007 -7.5551e-007 1.42038e-006 -9.44227e-015 3.18055e-015 -1.09332e-014 -41.9999 -49.2107 -73.3196 -120.702 41.6541 137.469 -17.5935 -3.34472 -33.2113 -1.31141e-006 -4.88169e-007 9.7027e-007 58.6676 -51.4574 87.3096 130.884 41.0128 -125.224 23.8688 -10.7351 11.1019 0 0 -2.78299e-015 
39.9649 8.6193 25.669 179.997 58.9977 1.63597e-010 0.547394 7.7867 -0.56735 1.19016 15.5671 -1.22784 1.19016 15.5671 -1.22784 2.145e-005 13.9934 -8.32599e-006 -1.85069e-007 0.574269 5.77023e-007 -47.4832 -3.51896 -3.77903 -0.611265 55.1259 10.4311 3.87027 36.0626 -8.21559 3.76185 7.94064 -5.01433 -3.88312e-007 -1.7094e-007 -4.43722e-008 -3.88312e-007 -1.7094e-007 -4.43722e-008 -3.88312e-007 -1.7094e-007 -4.43722e-008 -3.88312e-007 -1.7094e-007 -4.43722e-008 -0.0146074 -8.87614e-005 -1.12086e-006 -2.92484e-007 -2.19178e-007 7.18175e-007 -3.88312e-007 -1.7094e-007 -4.43722e-008 -0.0187638 -0.00117575 5.80515e-005 -4.83596e-007 -1.22517e-007 -8.0697e-007 -3.88312e-007 -1.7094e-007 -4.43722e-008 -0.0122618 -0.00324716 0.000669567 -3.88316e-007 -1.70934e-007 -4.43794e-008 -3.88312e-007 -1.7094e-007 -4.43722e-008 -3.88312e-007 -1.7094e-007 -4.43722e-008 -3.88312e-007 -1.7094e-007 -4.43722e-008 46.6232 -6.17904 -13.6443 41.6907 -11.4392 69.9496 -137.819 87.9916 -166.712 -14.0289 -27.2286 9.25315 -2.98177e-015 0 -1.98785e-015 -2.18663e-015 -6.36111e-015 3.37934e-015 -5.80304e-007 2.84362e-006 1.51704e-006 -2.98177e-015 0 -1.98785e-015 0.0149486 -9.02753e-005 -1.94206e-006 -5.8043e-007 2.84381e-006 1.51667e-006 -2.98177e-015 0 -1.98785e-015 0.0190328 -0.00119413 -6.05123e-005 -5.80451e-007 2.84388e-006 1.51657e-006 -2.98177e-015 0 -1.98785e-015 0.0122956 -0.00325431 -0.000674157 -5.80382e-007 2.8438e-006 1.51675e-006 -2.98177e-015 0 -1.98785e-015 -2.18663e-015 -6.36111e-015 3.37934e-015 -5.80304e-007 2.84362e-006 1.51704e-006 -42.0006 -49.2106 -73.3195 -120.701 41.6543 137.469 -17.5929 -3.34456 -33.2109 -2.14174e-006 1.78548e-005 3.00526e-007 58.44 -51.3965 87.1215 130.764 41.2 -125.045 23.8653 -10.7393 11.1001 3.48043e-008 1.07163e-005 4.33503e-006 
